# xmcd
#
# Track frame offsets:
#	150
#	11580
#	20722
#	30692
#	40849
#	51930
#	62135
#	72147
#	82572
#	92058
#	102287
#	111505
#
# Disc length: 1618 seconds
#
# Revision: 1
# Processed by: cddbd v1.5.2PL0 Copyright (c) Steve Scherf et al.
# Submitted via: audiograbber 1.83.01
#
DISCID=9606500c
DTITLE=Fats Domino - Let's Dance With Domino
DYEAR=1963
DGENRE=Blues/Rock&Roll
TTITLE0=Ain't That A Shame
TTITLE1=I Don't Want To Talk Without You
TTITLE2=I Lived My Life
TTITLE3=Someday
TTITLE4=Telling Lies
TTITLE5=When I See You
TTITLE6=Just A Little While (To Stay Here)
TTITLE7=Oh Ba-a-by
TTITLE8=When You're Smiling
TTITLE9=Don't You Know I Love You
TTITLE10=Yes My Darling
TTITLE11=True Confession
EXTD=
EXTT0=
EXTT1=
EXTT2=
EXTT3=
EXTT4=
EXTT5=
EXTT6=
EXTT7=
EXTT8=
EXTT9=
EXTT10=
EXTT11=
PLAYORDER=
